<svg width="50" height="32" viewBox="0 0 50 32" fill="none" xmlns="http://www.w3.org/2000/svg">
<path d="M29.9564 6.16104C29.9272 6.10951 29.8848 6.06664 29.8335 6.03681C29.7823 6.00698 29.724 5.99127 29.6647 5.99127H25.2726L26.0089 0.37194C26.0169 0.296734 25.9992 0.221061 25.9588 0.157104C25.9184 0.0931469 25.8576 0.0446283 25.7863 0.0193597C25.7149 -0.00590879 25.6371 -0.00645678 25.5654 0.017804C25.4937 0.0420648 25.4322 0.0897226 25.391 0.153104L20.0497 9.49942C20.0184 9.55016 20.0013 9.6083 20.0001 9.66785C19.9988 9.7274 20.0135 9.78621 20.0426 9.8382C20.0717 9.89019 20.1142 9.93349 20.1656 9.96363C20.217 9.99377 20.2756 10.0097 20.3352 10.0097H24.6617L24.0782 15.6375C24.0724 15.7124 24.092 15.7871 24.1336 15.8497C24.1753 15.9123 24.2368 15.9591 24.3082 15.9828C24.3796 16.0065 24.4569 16.0057 24.5278 15.9804C24.5987 15.9552 24.6591 15.907 24.6994 15.8435L29.9524 6.49817C29.9828 6.44735 29.9993 6.38938 30 6.33015C30.0007 6.27093 29.9856 6.21257 29.9564 6.16104Z" fill="#638FE3"/>
<path d="M4.80566 24.9736H2.46777V29H1.14844V19.0469H4.44336C5.56445 19.0469 6.42578 19.3021 7.02734 19.8125C7.63346 20.3229 7.93652 21.0658 7.93652 22.041C7.93652 22.6608 7.7679 23.2008 7.43066 23.6611C7.09798 24.1214 6.63314 24.4655 6.03613 24.6934L8.37402 28.918V29H6.96582L4.80566 24.9736ZM2.46777 23.9004H4.48438C5.13607 23.9004 5.65332 23.7318 6.03613 23.3945C6.4235 23.0573 6.61719 22.6061 6.61719 22.041C6.61719 21.4258 6.43262 20.9541 6.06348 20.626C5.69889 20.2979 5.17025 20.1315 4.47754 20.127H2.46777V23.9004ZM12.6533 29.1367C11.6507 29.1367 10.835 28.8086 10.2061 28.1523C9.57715 27.4915 9.2627 26.6097 9.2627 25.5068V25.2744C9.2627 24.5407 9.40169 23.8867 9.67969 23.3125C9.96224 22.7337 10.3542 22.2826 10.8555 21.959C11.3613 21.6309 11.9082 21.4668 12.4961 21.4668C13.4577 21.4668 14.2051 21.7835 14.7383 22.417C15.2715 23.0505 15.5381 23.9574 15.5381 25.1377V25.6641H10.5273C10.5456 26.3932 10.7575 26.9834 11.1631 27.4346C11.5732 27.8812 12.0928 28.1045 12.7217 28.1045C13.1683 28.1045 13.5465 28.0133 13.8564 27.8311C14.1663 27.6488 14.4375 27.4072 14.6699 27.1064L15.4424 27.708C14.8226 28.6605 13.8929 29.1367 12.6533 29.1367ZM12.4961 22.5059C11.9857 22.5059 11.5573 22.6927 11.2109 23.0664C10.8646 23.4355 10.6504 23.9551 10.5684 24.625H14.2734V24.5293C14.237 23.8867 14.0638 23.39 13.7539 23.0391C13.444 22.6836 13.0247 22.5059 12.4961 22.5059ZM21.3145 27.0381C21.3145 26.6963 21.1846 26.432 20.9248 26.2451C20.6696 26.0537 20.2207 25.8896 19.5781 25.7529C18.9401 25.6162 18.432 25.4521 18.0537 25.2607C17.68 25.0693 17.402 24.8415 17.2197 24.5771C17.042 24.3128 16.9531 23.9984 16.9531 23.6338C16.9531 23.0277 17.2083 22.515 17.7188 22.0957C18.2337 21.6764 18.89 21.4668 19.6875 21.4668C20.526 21.4668 21.2051 21.6833 21.7246 22.1162C22.2487 22.5492 22.5107 23.1029 22.5107 23.7773H21.2393C21.2393 23.431 21.0911 23.1325 20.7949 22.8818C20.5033 22.6312 20.1341 22.5059 19.6875 22.5059C19.2272 22.5059 18.8672 22.6061 18.6074 22.8066C18.3477 23.0072 18.2178 23.2692 18.2178 23.5928C18.2178 23.8981 18.3385 24.1283 18.5801 24.2832C18.8216 24.4382 19.2568 24.5863 19.8857 24.7275C20.5192 24.8688 21.0319 25.0374 21.4238 25.2334C21.8158 25.4294 22.1051 25.6663 22.292 25.9443C22.4834 26.2178 22.5791 26.5527 22.5791 26.9492C22.5791 27.61 22.3148 28.141 21.7861 28.542C21.2575 28.9385 20.5716 29.1367 19.7285 29.1367C19.1361 29.1367 18.612 29.0319 18.1562 28.8223C17.7005 28.6126 17.3428 28.321 17.083 27.9473C16.8278 27.569 16.7002 27.1611 16.7002 26.7236H17.9648C17.9876 27.1475 18.1562 27.4847 18.4707 27.7354C18.7897 27.9814 19.209 28.1045 19.7285 28.1045C20.207 28.1045 20.5898 28.0088 20.877 27.8174C21.1686 27.6214 21.3145 27.3617 21.3145 27.0381ZM27.2959 29.1367C26.2933 29.1367 25.4775 28.8086 24.8486 28.1523C24.2197 27.4915 23.9053 26.6097 23.9053 25.5068V25.2744C23.9053 24.5407 24.0443 23.8867 24.3223 23.3125C24.6048 22.7337 24.9967 22.2826 25.498 21.959C26.0039 21.6309 26.5508 21.4668 27.1387 21.4668C28.1003 21.4668 28.8477 21.7835 29.3809 22.417C29.9141 23.0505 30.1807 23.9574 30.1807 25.1377V25.6641H25.1699C25.1882 26.3932 25.4001 26.9834 25.8057 27.4346C26.2158 27.8812 26.7354 28.1045 27.3643 28.1045C27.8109 28.1045 28.1891 28.0133 28.499 27.8311C28.8089 27.6488 29.0801 27.4072 29.3125 27.1064L30.085 27.708C29.4652 28.6605 28.5355 29.1367 27.2959 29.1367ZM27.1387 22.5059C26.6283 22.5059 26.1999 22.6927 25.8535 23.0664C25.5072 23.4355 25.293 23.9551 25.2109 24.625H28.916V24.5293C28.8796 23.8867 28.7064 23.39 28.3965 23.0391C28.0866 22.6836 27.6673 22.5059 27.1387 22.5059ZM35.2256 22.7383C35.0342 22.7064 34.8268 22.6904 34.6035 22.6904C33.7741 22.6904 33.2113 23.0436 32.915 23.75V29H31.6504V21.6035H32.8809L32.9014 22.458C33.3161 21.7972 33.904 21.4668 34.665 21.4668C34.9111 21.4668 35.098 21.4987 35.2256 21.5625V22.7383ZM38.958 27.2842L40.79 21.6035H42.082L39.4297 29H38.4658L35.7861 21.6035H37.0781L38.958 27.2842ZM47.7559 29C47.6829 28.8542 47.6237 28.5944 47.5781 28.2207C46.9902 28.8314 46.2884 29.1367 45.4727 29.1367C44.7435 29.1367 44.1442 28.9316 43.6748 28.5215C43.21 28.1068 42.9775 27.5827 42.9775 26.9492C42.9775 26.179 43.2692 25.582 43.8525 25.1582C44.4404 24.7298 45.2653 24.5156 46.3271 24.5156H47.5576V23.9346C47.5576 23.4925 47.4255 23.1416 47.1611 22.8818C46.8968 22.6175 46.5072 22.4854 45.9922 22.4854C45.541 22.4854 45.1628 22.5993 44.8574 22.8271C44.5521 23.055 44.3994 23.3307 44.3994 23.6543H43.1279C43.1279 23.2852 43.2578 22.9297 43.5176 22.5879C43.7819 22.2415 44.1374 21.9681 44.584 21.7676C45.0352 21.5671 45.5296 21.4668 46.0674 21.4668C46.9196 21.4668 47.5872 21.681 48.0703 22.1094C48.5534 22.5332 48.804 23.1188 48.8223 23.8662V27.2705C48.8223 27.9495 48.9089 28.4896 49.082 28.8906V29H47.7559ZM45.6572 28.0361C46.0537 28.0361 46.4297 27.9336 46.7852 27.7285C47.1406 27.5234 47.3981 27.2568 47.5576 26.9287V25.4111H46.5664C45.0169 25.4111 44.2422 25.8646 44.2422 26.7715C44.2422 27.168 44.3743 27.4779 44.6387 27.7012C44.903 27.9245 45.2425 28.0361 45.6572 28.0361Z" fill="#638FE3"/>
</svg>
