<svg width="36" height="32" viewBox="0 0 36 32" fill="none" xmlns="http://www.w3.org/2000/svg">
<g clip-path="url(#clip0)">
<path d="M17.9998 16.0055L17.5331 15.6055C16.8898 15.0668 11.2725 10.2155 11.2725 6.66679C11.2725 4.88259 11.9812 3.17146 13.2429 1.90984C14.5045 0.648224 16.2156 -0.0605469 17.9998 -0.0605469C19.784 -0.0605469 21.4951 0.648224 22.7567 1.90984C24.0184 3.17146 24.7271 4.88259 24.7271 6.66679C24.7271 10.2155 19.1098 15.0668 18.4691 15.6081L17.9998 16.0055ZM17.9998 1.39412C16.6019 1.39571 15.2617 1.95173 14.2732 2.9402C13.2847 3.92867 12.7287 5.26888 12.7271 6.66679C12.7271 8.89612 16.1831 12.4575 17.9998 14.0875C19.8165 12.4568 23.2725 8.89345 23.2725 6.66679C23.2709 5.26888 22.7149 3.92867 21.7264 2.9402C20.7379 1.95173 19.3977 1.39571 17.9998 1.39412Z" fill="#638FE3"/>
<path d="M17.9997 9.33333C17.4723 9.33333 16.9567 9.17694 16.5182 8.88392C16.0796 8.5909 15.7378 8.17443 15.536 7.68716C15.3342 7.19989 15.2814 6.66371 15.3842 6.14643C15.4871 5.62914 15.7411 5.15399 16.1141 4.78105C16.487 4.40811 16.9622 4.15413 17.4794 4.05124C17.9967 3.94835 18.5329 4.00116 19.0202 4.20299C19.5074 4.40482 19.9239 4.74662 20.2169 5.18515C20.5099 5.62368 20.6663 6.13925 20.6663 6.66667C20.6663 7.37391 20.3854 8.05219 19.8853 8.55229C19.3852 9.05238 18.7069 9.33333 17.9997 9.33333ZM17.9997 5.33333C17.736 5.33333 17.4782 5.41153 17.2589 5.55804C17.0397 5.70455 16.8688 5.91279 16.7678 6.15642C16.6669 6.40006 16.6405 6.66815 16.692 6.92679C16.7434 7.18543 16.8704 7.42301 17.0569 7.60948C17.2433 7.79595 17.4809 7.92294 17.7396 7.97438C17.9982 8.02583 18.2663 7.99942 18.5099 7.89851C18.7536 7.79759 18.9618 7.62669 19.1083 7.40743C19.2548 7.18816 19.333 6.93038 19.333 6.66667C19.333 6.31305 19.1925 5.97391 18.9425 5.72386C18.6924 5.47381 18.3533 5.33333 17.9997 5.33333Z" fill="#638FE3"/>
</g>
<path d="M2.85059 19.0469L6.10449 27.168L9.3584 19.0469H11.0605V29H9.74805V25.124L9.87109 20.9404L6.60352 29H5.59863L2.33789 20.9609L2.46777 25.124V29H1.15527V19.0469H2.85059ZM17.7461 29C17.6732 28.8542 17.6139 28.5944 17.5684 28.2207C16.9805 28.8314 16.2786 29.1367 15.4629 29.1367C14.7337 29.1367 14.1344 28.9316 13.665 28.5215C13.2002 28.1068 12.9678 27.5827 12.9678 26.9492C12.9678 26.179 13.2594 25.582 13.8428 25.1582C14.4307 24.7298 15.2555 24.5156 16.3174 24.5156H17.5479V23.9346C17.5479 23.4925 17.4157 23.1416 17.1514 22.8818C16.887 22.6175 16.4974 22.4854 15.9824 22.4854C15.5312 22.4854 15.153 22.5993 14.8477 22.8271C14.5423 23.055 14.3896 23.3307 14.3896 23.6543H13.1182C13.1182 23.2852 13.248 22.9297 13.5078 22.5879C13.7721 22.2415 14.1276 21.9681 14.5742 21.7676C15.0254 21.5671 15.5199 21.4668 16.0576 21.4668C16.9098 21.4668 17.5775 21.681 18.0605 22.1094C18.5436 22.5332 18.7943 23.1188 18.8125 23.8662V27.2705C18.8125 27.9495 18.8991 28.4896 19.0723 28.8906V29H17.7461ZM15.6475 28.0361C16.0439 28.0361 16.4199 27.9336 16.7754 27.7285C17.1309 27.5234 17.3883 27.2568 17.5479 26.9287V25.4111H16.5566C15.0072 25.4111 14.2324 25.8646 14.2324 26.7715C14.2324 27.168 14.3646 27.4779 14.6289 27.7012C14.8932 27.9245 15.2327 28.0361 15.6475 28.0361ZM27.043 25.3838C27.043 26.5094 26.7855 27.4163 26.2705 28.1045C25.7555 28.7926 25.0583 29.1367 24.1787 29.1367C23.2809 29.1367 22.5745 28.8519 22.0596 28.2822V31.8438H20.7949V21.6035H21.9502L22.0117 22.4238C22.5267 21.7858 23.2422 21.4668 24.1582 21.4668C25.0469 21.4668 25.7487 21.8018 26.2637 22.4717C26.7832 23.1416 27.043 24.0736 27.043 25.2676V25.3838ZM25.7783 25.2402C25.7783 24.4062 25.6006 23.7477 25.2451 23.2646C24.8896 22.7816 24.402 22.54 23.7822 22.54C23.0166 22.54 22.4424 22.8796 22.0596 23.5586V27.0928C22.4378 27.7673 23.0166 28.1045 23.7959 28.1045C24.402 28.1045 24.8828 27.8652 25.2383 27.3867C25.5983 26.9036 25.7783 26.1882 25.7783 25.2402ZM33.2227 29C33.1497 28.8542 33.0905 28.5944 33.0449 28.2207C32.457 28.8314 31.7552 29.1367 30.9395 29.1367C30.2103 29.1367 29.611 28.9316 29.1416 28.5215C28.6768 28.1068 28.4443 27.5827 28.4443 26.9492C28.4443 26.179 28.736 25.582 29.3193 25.1582C29.9072 24.7298 30.7321 24.5156 31.7939 24.5156H33.0244V23.9346C33.0244 23.4925 32.8923 23.1416 32.6279 22.8818C32.3636 22.6175 31.974 22.4854 31.459 22.4854C31.0078 22.4854 30.6296 22.5993 30.3242 22.8271C30.0189 23.055 29.8662 23.3307 29.8662 23.6543H28.5947C28.5947 23.2852 28.7246 22.9297 28.9844 22.5879C29.2487 22.2415 29.6042 21.9681 30.0508 21.7676C30.502 21.5671 30.9964 21.4668 31.5342 21.4668C32.3864 21.4668 33.054 21.681 33.5371 22.1094C34.0202 22.5332 34.2708 23.1188 34.2891 23.8662V27.2705C34.2891 27.9495 34.3757 28.4896 34.5488 28.8906V29H33.2227ZM31.124 28.0361C31.5205 28.0361 31.8965 27.9336 32.252 27.7285C32.6074 27.5234 32.8649 27.2568 33.0244 26.9287V25.4111H32.0332C30.4837 25.4111 29.709 25.8646 29.709 26.7715C29.709 27.168 29.8411 27.4779 30.1055 27.7012C30.3698 27.9245 30.7093 28.0361 31.124 28.0361Z" fill="#638FE3"/>
<defs>
<clipPath id="clip0">
<rect width="16" height="16" fill="white" transform="translate(10)"/>
</clipPath>
</defs>
</svg>
