<svg width="24" height="24" viewBox="0 0 24 24" fill="none" xmlns="http://www.w3.org/2000/svg">
<g clip-path="url(#clip0)">
<path d="M3.12146 11.2928L13.0135 1.39982L11.6005 -0.0131836L1.70746 9.87882C1.14505 10.4414 0.829102 11.2043 0.829102 11.9998C0.829102 12.7953 1.14505 13.5582 1.70746 14.1208L11.5925 24.0058L13.0065 22.5918L3.12246 12.7068C2.93486 12.5194 2.82936 12.2652 2.82917 12C2.82899 11.7349 2.93412 11.4805 3.12146 11.2928Z" fill="#638FE3"/>
<path d="M23.0008 1.417L21.5838 0L10.2938 11.29C10.1063 11.4775 10.001 11.7318 10.001 11.997C10.001 12.2622 10.1063 12.5165 10.2938 12.704L21.5848 24L23.0008 22.584L12.4148 12L23.0008 1.417Z" fill="#638FE3"/>
</g>
<defs>
<clipPath id="clip0">
<rect width="24" height="24" fill="white"/>
</clipPath>
</defs>
</svg>
