<svg width="45" height="45" viewBox="0 0 45 45" fill="none" xmlns="http://www.w3.org/2000/svg">
<path d="M28.6217 6.12793H13.6085C13.1475 6.12793 12.7744 6.50099 12.7744 6.96202V16.9863C12.7744 17.4473 13.1475 17.8204 13.6085 17.8204H28.6217C29.0827 17.8204 29.4558 17.4473 29.4558 16.9863V6.96194C29.4557 6.50099 29.0827 6.12793 28.6217 6.12793ZM27.7876 16.1522H14.4425V7.79604H27.7876V16.1522Z" fill="#BDBDBD"/>
<path d="M38.6308 7.79591C38.1697 7.79591 37.7967 8.16897 37.7967 8.63V9.46409H36.1286V8.63C36.1286 8.16897 35.7555 7.79591 35.2945 7.79591C34.8334 7.79591 34.4604 8.16897 34.4604 8.63V11.9663C34.4604 13.0523 35.1597 13.9694 36.1285 14.3148V31.9839C36.1285 32.4441 35.7538 32.818 35.2944 32.818C34.835 32.818 34.4603 32.4442 34.4603 31.9839V30.3157C34.4603 29.2298 33.7609 28.3126 32.7922 27.9672V6.1278C32.7923 4.28774 31.2952 2.7915 29.456 2.7915H12.7746C10.9354 2.7915 9.43835 4.28774 9.43835 6.1278V36.1542C7.59915 36.1542 6.10205 37.6505 6.10205 39.4905V41.9927C6.10205 42.4537 6.47511 42.8268 6.93614 42.8268H35.2945C35.7555 42.8268 36.1286 42.4537 36.1286 41.9927V39.4905C36.1286 37.6505 34.6315 36.1542 32.7923 36.1542V31.9839C32.7923 33.3637 33.9147 34.4861 35.2945 34.4861C36.6743 34.4861 37.7967 33.3637 37.7967 31.9839V14.3148C38.7654 13.9693 39.4648 13.0522 39.4648 11.9662V8.63C39.4648 8.16897 39.0918 7.79591 38.6308 7.79591ZM11.1065 6.1278C11.1065 5.20824 11.8543 4.45969 12.7746 4.45969H29.456C30.3764 4.45969 31.1241 5.20824 31.1241 6.1278V36.1542H11.1065V6.1278H11.1065ZM34.4604 39.4904V41.1585H7.77024V39.4904C7.77024 38.5709 8.518 37.8223 9.43835 37.8223H32.7923C33.7127 37.8223 34.4604 38.5709 34.4604 39.4904ZM37.7967 11.9662C37.7967 12.4264 37.422 12.8003 36.9626 12.8003C36.5032 12.8003 36.1285 12.4265 36.1285 11.9662V11.1321H37.7967V11.9662Z" fill="#BDBDBD"/>
<path d="M25.2855 24.4774H22.7833V20.3071C22.7833 19.9324 22.5324 19.6033 22.1724 19.5032C21.8042 19.4038 21.4262 19.557 21.234 19.8779L16.2296 28.2186C16.0749 28.4768 16.0716 28.7977 16.2182 29.0591C16.3665 29.3206 16.645 29.4819 16.9448 29.4819H19.447V33.6522C19.447 34.0269 19.6978 34.3559 20.0579 34.4561C20.1328 34.4764 20.2078 34.4862 20.2811 34.4862C20.5695 34.4862 20.8431 34.3371 20.9962 34.0814L26.0006 25.7407C26.1554 25.4825 26.1587 25.1616 26.0121 24.9001C25.8638 24.6387 25.5852 24.4774 25.2855 24.4774ZM21.1152 30.6408V28.6477C21.1152 28.1867 20.7421 27.8136 20.2811 27.8136H18.4175L21.1152 23.3182V25.3115C21.1152 25.7725 21.4882 26.1456 21.9493 26.1456H23.8129L21.1152 30.6408Z" fill="#BDBDBD"/>
</svg>
