<svg width="10" height="16" viewBox="0 0 10 16" fill="none" xmlns="http://www.w3.org/2000/svg">
<path d="M9.95641 6.16104C9.92717 6.10951 9.88476 6.06664 9.83352 6.03681C9.78228 6.00698 9.72403 5.99127 9.66472 5.99127H5.2726L6.00895 0.37194C6.01685 0.296734 5.99918 0.221061 5.95879 0.157104C5.91839 0.0931469 5.85762 0.0446283 5.78627 0.0193597C5.71491 -0.00590879 5.63711 -0.00645678 5.5654 0.017804C5.49369 0.0420648 5.43224 0.0897226 5.39095 0.153104L0.0496637 9.49942C0.0184294 9.55016 0.00131066 9.6083 7.23106e-05 9.66785C-0.00116604 9.7274 0.0135208 9.78621 0.0426188 9.8382C0.0717168 9.89019 0.114173 9.93349 0.165609 9.96363C0.217045 9.99377 0.2756 10.0097 0.335235 10.0097H4.66173L4.07818 15.6375C4.07244 15.7124 4.09197 15.7871 4.13365 15.8497C4.17533 15.9123 4.23677 15.9591 4.30819 15.9828C4.37961 16.0065 4.45691 16.0057 4.52779 15.9804C4.59868 15.9552 4.65907 15.907 4.69936 15.8435L9.95239 6.49817C9.98285 6.44735 9.99927 6.38938 9.99998 6.33015C10.0007 6.27093 9.98565 6.21257 9.95641 6.16104Z" fill="#020828"/>
</svg>
