<svg width="51" height="62" viewBox="0 0 51 62" fill="none" xmlns="http://www.w3.org/2000/svg">
<path d="M34.4196 5.81689H11.6577C10.9587 5.81689 10.3931 6.38251 10.3931 7.08149V22.2796C10.3931 22.9786 10.9587 23.5442 11.6577 23.5442H34.4196C35.1186 23.5442 35.6842 22.9786 35.6842 22.2796V7.08137C35.6841 6.38251 35.1186 5.81689 34.4196 5.81689ZM33.155 21.015H12.9221V8.34596H33.155V21.015Z" fill="#E0E0E0"/>
<path d="M49.5946 8.34611C48.8956 8.34611 48.33 8.91172 48.33 9.6107V10.8753H45.8009V9.6107C45.8009 8.91172 45.2353 8.34611 44.5363 8.34611C43.8373 8.34611 43.2717 8.91172 43.2717 9.6107V14.669C43.2717 16.3154 44.332 17.7059 45.8008 18.2297V45.0182C45.8008 45.7159 45.2327 46.2828 44.5362 46.2828C43.8397 46.2828 43.2716 45.716 43.2716 45.0182V42.4891C43.2716 40.8426 42.2113 39.4521 40.7425 38.9283V5.81704C40.7426 3.02728 38.4729 0.758789 35.6844 0.758789H10.3934C7.6049 0.758789 5.33511 3.02728 5.33511 5.81704V51.341C2.54665 51.341 0.276855 53.6095 0.276855 56.3992V60.1929C0.276855 60.8919 0.842467 61.4575 1.54145 61.4575H44.5363C45.2353 61.4575 45.8009 60.8919 45.8009 60.1929V56.3992C45.8009 53.6096 43.5311 51.341 40.7426 51.341V45.0182C40.7426 47.1102 42.4443 48.8119 44.5363 48.8119C46.6283 48.8119 48.33 47.1102 48.33 45.0182V18.2295C49.7987 17.7058 50.859 16.3153 50.859 14.6688V9.6107C50.859 8.91172 50.2935 8.34611 49.5946 8.34611ZM7.8643 5.81704C7.8643 4.42287 8.99801 3.28798 10.3934 3.28798H35.6844C37.0799 3.28798 38.2135 4.42287 38.2135 5.81704V51.341H7.86418V5.81704H7.8643ZM43.2717 56.3991V58.9282H2.80604V56.3991C2.80604 55.0049 3.93975 53.87 5.33511 53.87H40.7426C42.1381 53.87 43.2717 55.0049 43.2717 56.3991ZM48.33 14.6688C48.33 15.3665 47.7619 15.9334 47.0654 15.9334C46.3689 15.9334 45.8008 15.3666 45.8008 14.6688V13.4042H48.33V14.6688Z" fill="#E0E0E0"/>
<path d="M29.3616 33.6369H25.5679V27.3141C25.5679 26.746 25.1876 26.2472 24.6417 26.0953C24.0836 25.9446 23.5105 26.1769 23.2191 26.6634L15.6318 39.309C15.3971 39.7004 15.3922 40.187 15.6144 40.5834C15.8392 40.9799 16.2615 41.2243 16.716 41.2243H20.5097V47.547C20.5097 48.1151 20.89 48.614 21.4359 48.7659C21.5495 48.7967 21.6632 48.8115 21.7743 48.8115C22.2115 48.8115 22.6264 48.5856 22.8586 48.1978L30.4459 35.5522C30.6805 35.1607 30.6855 34.6742 30.4632 34.2778C30.2384 33.8814 29.816 33.6369 29.3616 33.6369ZM23.0389 42.9815V39.9596C23.0389 39.2606 22.4733 38.695 21.7743 38.695H18.9488L23.0389 31.8795V34.9015C23.0389 35.6004 23.6045 36.1661 24.3035 36.1661H27.1289L23.0389 42.9815Z" fill="#E0E0E0"/>
</svg>
