<svg width="24" height="24" viewBox="0 0 24 24" fill="none" xmlns="http://www.w3.org/2000/svg">
<path d="M15.3748 2.83331H7.12485C6.87151 2.83331 6.6665 3.03832 6.6665 3.29166V8.80016C6.6665 9.0535 6.87151 9.2585 7.12485 9.2585H15.3748C15.6282 9.2585 15.8332 9.0535 15.8332 8.80016V3.29162C15.8331 3.03832 15.6282 2.83331 15.3748 2.83331ZM14.9165 8.34181H7.58315V3.74996H14.9165V8.34181Z" fill="#020828"/>
<path d="M20.875 3.74999C20.6217 3.74999 20.4167 3.955 20.4167 4.20834V4.66669H19.5V4.20834C19.5 3.955 19.295 3.74999 19.0417 3.74999C18.7883 3.74999 18.5833 3.955 18.5833 4.20834V6.04169C18.5833 6.63843 18.9676 7.14241 19.5 7.33225V17.0417C19.5 17.2945 19.2941 17.5 19.0416 17.5C18.7892 17.5 18.5833 17.2946 18.5833 17.0417V16.125C18.5833 15.5282 18.199 15.0242 17.6666 14.8344V2.83334C17.6667 1.82221 16.844 1 15.8333 1H6.66669C5.65602 1 4.83334 1.82221 4.83334 2.83334V19.3333C3.82268 19.3333 3 20.1555 3 21.1667V22.5417C3 22.795 3.205 23 3.45835 23H19.0417C19.295 23 19.5 22.795 19.5 22.5417V21.1667C19.5 20.1556 18.6773 19.3333 17.6667 19.3333V17.0417C17.6667 17.7999 18.2834 18.4167 19.0417 18.4167C19.7999 18.4167 20.4167 17.7999 20.4167 17.0417V7.33221C20.949 7.14237 21.3333 6.63839 21.3333 6.04164V4.20834C21.3333 3.955 21.1284 3.74999 20.875 3.74999ZM5.75004 2.83334C5.75004 2.32803 6.16095 1.91669 6.66669 1.91669H15.8333C16.3391 1.91669 16.75 2.32803 16.75 2.83334V19.3333H5.74999V2.83334H5.75004ZM18.5833 21.1666V22.0833H3.91669V21.1666C3.91669 20.6613 4.3276 20.25 4.83334 20.25H17.6667C18.1725 20.25 18.5833 20.6613 18.5833 21.1666ZM20.4167 6.04164C20.4167 6.29451 20.2108 6.49999 19.9583 6.49999C19.7059 6.49999 19.5 6.29456 19.5 6.04164V5.5833H20.4167V6.04164Z" fill="#020828"/>
<path d="M13.5416 12.9166H12.1666V10.625C12.1666 10.419 12.0288 10.2382 11.8309 10.1832C11.6286 10.1286 11.4209 10.2128 11.3153 10.3891L8.56527 14.9724C8.48024 15.1143 8.47843 15.2907 8.559 15.4344C8.64047 15.578 8.79352 15.6666 8.95827 15.6666H10.3333V17.9583C10.3333 18.1642 10.4711 18.345 10.669 18.4001C10.7101 18.4112 10.7513 18.4166 10.7916 18.4166C10.9501 18.4166 11.1005 18.3347 11.1846 18.1941L13.9346 13.6108C14.0196 13.4689 14.0214 13.2926 13.9409 13.1489C13.8594 13.0052 13.7063 12.9166 13.5416 12.9166ZM11.25 16.3035V15.2083C11.25 14.9549 11.045 14.7499 10.7916 14.7499H9.76754L11.25 12.2796V13.3749C11.25 13.6283 11.455 13.8333 11.7083 13.8333H12.7324L11.25 16.3035Z" fill="#020828"/>
</svg>
