<svg width="16" height="16" viewBox="0 0 16 16" fill="none" xmlns="http://www.w3.org/2000/svg">
<path d="M14 16H2V14C2.03986 12.8471 2.32453 11.7158 2.8351 10.6814C3.34566 9.64691 4.07045 8.73289 4.96133 8C4.07045 7.26711 3.34566 6.35309 2.8351 5.31862C2.32453 4.28416 2.03986 3.15291 2 2C2 1.46957 2.21071 0.960859 2.58579 0.585786C2.96086 0.210714 3.46957 0 4 0L12 0C12.5304 0 13.0391 0.210714 13.4142 0.585786C13.7893 0.960859 14 1.46957 14 2C13.9606 3.15186 13.6773 4.28226 13.1688 5.31655C12.6603 6.35083 11.9381 7.26545 11.05 8C11.9381 8.73455 12.6603 9.64917 13.1688 10.6835C13.6773 11.7177 13.9606 12.8481 14 14V16ZM3.33333 14.6667H12.6667V14C12.6667 11.484 11 9.632 9.60533 8.522L8.94933 8L9.60533 7.478C11 6.368 12.6667 4.516 12.6667 2C12.6667 1.82319 12.5964 1.65362 12.4714 1.5286C12.3464 1.40357 12.1768 1.33333 12 1.33333H4C3.82319 1.33333 3.65362 1.40357 3.5286 1.5286C3.40357 1.65362 3.33333 1.82319 3.33333 2C3.33333 4.516 5.00533 6.36733 6.408 7.47733L7.06667 8L6.406 8.52267C5.00533 9.63267 3.33333 11.484 3.33333 14V14.6667ZM8.012 10.6547C8.50438 11.0405 8.94038 11.4934 9.30733 12H6.712L8.012 10.6547ZM8.00933 9.00867C6.918 9.724 5.05667 11.2287 4.72 13.3333H11.2813C10.948 11.2107 9.08933 9.71333 8.00933 9.00867Z" fill="black"/>
</svg>
