<svg width="24" height="24" viewBox="0 0 24 24" fill="none" xmlns="http://www.w3.org/2000/svg">
<g clip-path="url(#clip0)">
<path d="M16.7617 3.45501C19.8929 3.47025 22.4275 6.00481 22.4427 9.13604C22.4427 14.8727 11.9997 20.5537 11.9997 20.5537C11.9997 20.5537 1.55664 14.7892 1.55664 9.13604C1.55664 5.99852 4.1001 3.45501 7.23767 3.45501C9.15828 3.44003 10.9538 4.40604 11.9997 6.01701C13.0527 4.41387 14.8436 3.45037 16.7617 3.45501Z" fill="#BDBDBD"/>
<path d="M12 21.1107C11.9012 21.1094 11.8047 21.0805 11.7215 21.0272C11.3038 20.8044 1 15.0398 1 9.13604C1 5.69091 3.79281 2.89805 7.23799 2.89805C9.07572 2.8764 10.8252 3.68464 12 5.09802C14.2254 2.468 18.1614 2.13997 20.7914 4.36532C22.1945 5.55253 23.0026 7.29805 23.0001 9.13599C23.0001 15.1233 12.6963 20.8043 12.2785 21.0271C12.1953 21.0804 12.0988 21.1094 12 21.1107ZM7.23799 4.01197C4.40809 4.01197 2.11393 6.30608 2.11393 9.13604C2.11393 13.9259 10.3848 18.9664 12 19.9133C13.6152 18.9943 21.886 13.9816 21.886 9.13604C21.8907 6.30613 19.6003 4.00824 16.7704 4.00355C15.038 4.00072 13.4215 4.8734 12.4734 6.32335C12.2838 6.5848 11.9181 6.64306 11.6566 6.45341C11.6067 6.41716 11.5628 6.37329 11.5266 6.32335C10.5928 4.86333 8.97098 3.98921 7.23799 4.01197Z" fill="#68719F"/>
</g>
<defs>
<clipPath id="clip0">
<rect width="22" height="22" fill="white" transform="translate(1 1)"/>
</clipPath>
</defs>
</svg>
