<svg width="27" height="25" viewBox="0 0 27 25" fill="none" xmlns="http://www.w3.org/2000/svg">
<path d="M18.5265 0.500471L18.5048 1L18.4971 0.50006C17.283 0.518944 16.0955 0.85784 15.0544 1.48252C14.2478 1.96648 13.5512 2.6087 13.0048 3.36745C12.4585 2.6087 11.7619 1.96648 10.9553 1.48252C9.91418 0.85784 8.72664 0.518944 7.51262 0.50006L7.49787 0.499831L7.48314 0.500471C5.55609 0.584197 3.7405 1.4272 2.43302 2.84531C1.12767 4.26111 0.434722 6.13525 0.504848 8.05944C0.507378 9.87965 1.24108 11.7281 2.29744 13.4555C3.3588 15.1911 4.77088 16.8451 6.18458 18.2827C9.01232 21.1583 11.8956 23.2174 12.1367 23.3892L12.138 23.3902L12.716 23.7992L13.0048 24.0035L13.2937 23.7992L13.8717 23.3902L13.8718 23.39C14.1144 23.2183 16.9975 21.1592 19.8251 18.2834C21.2388 16.8457 22.6509 15.1915 23.7123 13.4558C24.7686 11.7282 25.5023 9.87966 25.5048 8.05947C25.575 6.13526 24.882 4.26112 23.5767 2.84531C22.2692 1.4272 20.4536 0.584197 18.5265 0.500471ZM3.50484 8.05V8.0365L3.50411 8.02303C3.44287 6.88954 3.83232 5.77783 4.5875 4.93034C5.3359 4.09047 6.38333 3.57763 7.50484 3.50104C8.62636 3.57763 9.67378 4.09047 10.4222 4.93034C11.1774 5.77783 11.5668 6.88954 11.5056 8.02303L11.4771 8.55H12.0048H14.0048H14.5326L14.5041 8.02303C14.4429 6.88954 14.8323 5.77783 15.5875 4.93034C16.3359 4.09047 17.3833 3.57763 18.5048 3.50104C19.6264 3.57763 20.6738 4.09047 21.4222 4.93034C22.1774 5.77783 22.5668 6.88954 22.5056 8.02303L22.5048 8.0365V8.05C22.5048 9.05099 22.1255 10.1776 21.4629 11.3679C20.8032 12.5529 19.8832 13.7648 18.851 14.9265C16.9104 17.1104 14.6096 19.0764 13.0048 20.3023C11.4001 19.0764 9.09928 17.1099 7.15875 14.9258C6.12649 13.764 5.20643 12.552 4.54675 11.367C3.88419 10.1768 3.50484 9.05046 3.50484 8.05Z" fill="#E85757" stroke="#E85757"/>
</svg>
