<svg width="26" height="24" viewBox="0 0 26 24" fill="none" xmlns="http://www.w3.org/2000/svg">
<path d="M21.6673 24H4.66607C3.39778 24 2.36591 22.9682 2.36591 21.6998V9.59797C2.36591 9.15614 2.72408 8.79791 3.16596 8.79791C3.60784 8.79791 3.96602 9.15614 3.96602 9.59797V21.6998C3.96602 22.0858 4.28004 22.3999 4.66607 22.3999H21.6673C22.0533 22.3999 22.3673 22.0858 22.3673 21.6998V9.59797C22.3673 9.15614 22.7255 8.79791 23.1674 8.79791C23.6093 8.79791 23.9674 9.15614 23.9674 9.59797V21.6998C23.9674 22.9681 22.9356 24 21.6673 24Z" fill="#828282"/>
<path d="M25.1675 12.3979C24.9628 12.3979 24.7581 12.3198 24.6018 12.1636L14.6517 2.21351C13.8329 1.39465 12.5005 1.39465 11.6817 2.21351L1.73157 12.1636C1.41915 12.4761 0.91256 12.4761 0.600138 12.1636C0.287666 11.8512 0.287666 11.3446 0.600138 11.0322L10.5502 1.08203C11.9929 -0.360676 14.3405 -0.360676 15.7831 1.08203L25.7332 11.0321C26.0457 11.3446 26.0457 11.8511 25.7332 12.1636C25.5771 12.3198 25.3723 12.3979 25.1675 12.3979Z" fill="#828282"/>
<path d="M16.3669 24H9.96644C9.52456 24 9.16638 23.6418 9.16638 23.2V16.0995C9.16638 14.7209 10.288 13.5993 11.6666 13.5993H14.6668C16.0454 13.5993 17.1669 14.7209 17.1669 16.0995V23.2C17.1669 23.6418 16.8088 24 16.3669 24ZM10.7665 22.3999H15.5668V16.0995C15.5668 15.6032 15.1631 15.1994 14.6668 15.1994H11.6666C11.1703 15.1994 10.7665 15.6032 10.7665 16.0995V22.3999Z" fill="#828282"/>
</svg>
