<svg width="38" height="32" viewBox="0 0 38 32" fill="none" xmlns="http://www.w3.org/2000/svg">
<g clip-path="url(#clip0)">
<path d="M19.892 0.555207C19.6472 0.334832 19.3294 0.212891 19 0.212891C18.6706 0.212891 18.3528 0.334832 18.108 0.555207L11 6.95254V13.8859C11 14.4517 11.2248 14.9943 11.6248 15.3944C12.0249 15.7944 12.5675 16.0192 13.1333 16.0192H24.8667C25.4325 16.0192 25.9751 15.7944 26.3752 15.3944C26.7752 14.9943 27 14.4517 27 13.8859V6.95254L19.892 0.555207ZM21 14.6839H17V11.3332C17 10.8028 17.2107 10.2941 17.5858 9.91899C17.9609 9.54392 18.4696 9.33321 19 9.33321C19.5304 9.33321 20.0391 9.54392 20.4142 9.91899C20.7893 10.2941 21 10.8028 21 11.3332V14.6839ZM25.6667 13.8839C25.6667 14.096 25.5824 14.2995 25.4324 14.4496C25.2823 14.5996 25.0788 14.6839 24.8667 14.6839H22.3333V11.3332C22.3333 10.4492 21.9821 9.60131 21.357 8.97618C20.7319 8.35106 19.8841 7.99987 19 7.99987C18.1159 7.99987 17.2681 8.35106 16.643 8.97618C16.0179 9.60131 15.6667 10.4492 15.6667 11.3332V14.6839H13.1333C12.9212 14.6839 12.7177 14.5996 12.5676 14.4496C12.4176 14.2995 12.3333 14.096 12.3333 13.8839V7.54587L19 1.54587L25.6667 7.54587V13.8839Z" fill="#68719F"/>
</g>
<path d="M8.80469 29H7.48535V24.3994H2.46777V29H1.15527V19.0469H2.46777V23.3262H7.48535V19.0469H8.80469V29ZM10.6025 25.2334C10.6025 24.5088 10.7438 23.8571 11.0264 23.2783C11.3135 22.6995 11.71 22.2529 12.2158 21.9385C12.7262 21.624 13.3073 21.4668 13.959 21.4668C14.9661 21.4668 15.7796 21.8154 16.3994 22.5127C17.0238 23.21 17.3359 24.1374 17.3359 25.2949V25.3838C17.3359 26.1038 17.1969 26.751 16.9189 27.3252C16.6455 27.8949 16.2513 28.3392 15.7363 28.6582C15.2259 28.9772 14.638 29.1367 13.9727 29.1367C12.9701 29.1367 12.1566 28.7881 11.5322 28.0908C10.9124 27.3936 10.6025 26.4707 10.6025 25.3223V25.2334ZM11.874 25.3838C11.874 26.2041 12.0632 26.8626 12.4414 27.3594C12.8242 27.8561 13.3346 28.1045 13.9727 28.1045C14.6152 28.1045 15.1257 27.8538 15.5039 27.3525C15.8822 26.8467 16.0713 26.1403 16.0713 25.2334C16.0713 24.4222 15.8776 23.766 15.4902 23.2646C15.1074 22.7588 14.597 22.5059 13.959 22.5059C13.3346 22.5059 12.8311 22.7542 12.4482 23.251C12.0654 23.7477 11.874 24.4587 11.874 25.3838ZM20.1113 21.6035L20.1455 22.4238C20.6878 21.7858 21.4193 21.4668 22.3398 21.4668C23.3743 21.4668 24.0785 21.8633 24.4521 22.6562C24.6982 22.3008 25.0173 22.0137 25.4092 21.7949C25.8057 21.5762 26.2728 21.4668 26.8105 21.4668C28.4329 21.4668 29.2578 22.3258 29.2852 24.0439V29H28.0205V24.1191C28.0205 23.5905 27.8997 23.1963 27.6582 22.9365C27.4167 22.6722 27.0111 22.54 26.4414 22.54C25.972 22.54 25.5824 22.6813 25.2725 22.9639C24.9626 23.2419 24.7826 23.6178 24.7324 24.0918V29H23.4609V24.1533C23.4609 23.0778 22.9346 22.54 21.8818 22.54C21.0524 22.54 20.485 22.8932 20.1797 23.5996V29H18.915V21.6035H20.1113ZM34.2686 29.1367C33.266 29.1367 32.4502 28.8086 31.8213 28.1523C31.1924 27.4915 30.8779 26.6097 30.8779 25.5068V25.2744C30.8779 24.5407 31.0169 23.8867 31.2949 23.3125C31.5775 22.7337 31.9694 22.2826 32.4707 21.959C32.9766 21.6309 33.5234 21.4668 34.1113 21.4668C35.0729 21.4668 35.8203 21.7835 36.3535 22.417C36.8867 23.0505 37.1533 23.9574 37.1533 25.1377V25.6641H32.1426C32.1608 26.3932 32.3727 26.9834 32.7783 27.4346C33.1885 27.8812 33.708 28.1045 34.3369 28.1045C34.7835 28.1045 35.1618 28.0133 35.4717 27.8311C35.7816 27.6488 36.0527 27.4072 36.2852 27.1064L37.0576 27.708C36.4378 28.6605 35.5081 29.1367 34.2686 29.1367ZM34.1113 22.5059C33.6009 22.5059 33.1725 22.6927 32.8262 23.0664C32.4798 23.4355 32.2656 23.9551 32.1836 24.625H35.8887V24.5293C35.8522 23.8867 35.679 23.39 35.3691 23.0391C35.0592 22.6836 34.64 22.5059 34.1113 22.5059Z" fill="#68719F"/>
<defs>
<clipPath id="clip0">
<rect width="16" height="16" fill="white" transform="translate(11)"/>
</clipPath>
</defs>
</svg>
