<svg width="24" height="24" viewBox="0 0 24 24" fill="none" xmlns="http://www.w3.org/2000/svg">
<g clip-path="url(#clip0)">
<path d="M21.9998 1.20795e-05H19.8278C19.4337 -0.0011104 19.0433 0.0760072 18.6792 0.226895C18.3151 0.377782 17.9846 0.599437 17.7068 0.879012L9.34579 9.23901C7.74505 8.826 6.05293 8.95073 4.53005 9.59399C3.00718 10.2373 1.73804 11.3634 0.918122 12.7989C0.0982028 14.2344 -0.22701 15.8996 -0.00742289 17.5381C0.212164 19.1766 0.964369 20.6975 2.13333 21.8665C3.30229 23.0354 4.82315 23.7876 6.46166 24.0072C8.10017 24.2268 9.76543 23.9016 11.2009 23.0817C12.6364 22.2618 13.7625 20.9926 14.4058 19.4697C15.0491 17.9469 15.1738 16.2547 14.7608 14.654L15.9998 13.415V11H18.9998V8.00001H21.4138L23.1208 6.29301C23.4003 6.01494 23.6218 5.68423 23.7727 5.32C23.9236 4.95578 24.0008 4.56525 23.9998 4.17101V2.00001C23.9998 1.46958 23.7891 0.960871 23.414 0.585799C23.0389 0.210726 22.5302 1.20795e-05 21.9998 1.20795e-05ZM21.9998 4.17101C21.9999 4.30249 21.9741 4.4327 21.9238 4.55419C21.8735 4.67568 21.7998 4.78606 21.7068 4.87901L20.5858 6.00001H16.9998V9.00001H13.9998V12.585L12.4548 14.13C12.8066 14.871 12.9926 15.6798 12.9998 16.5C12.9998 17.5878 12.6772 18.6512 12.0729 19.5556C11.4685 20.4601 10.6095 21.1651 9.60454 21.5813C8.59955 21.9976 7.49368 22.1066 6.42679 21.8943C5.35989 21.6821 4.37989 21.1583 3.6107 20.3891C2.84151 19.6199 2.31768 18.6399 2.10547 17.573C1.89325 16.5061 2.00217 15.4002 2.41845 14.3953C2.83473 13.3903 3.53968 12.5313 4.44415 11.9269C5.34862 11.3226 6.41199 11 7.49978 11C8.32564 10.946 9.14922 11.1351 9.86879 11.544L19.1208 2.29301C19.3088 2.10629 19.5628 2.00105 19.8278 2.00001H21.9998V4.17101ZM4.99978 18C4.99978 18.1978 5.05843 18.3911 5.16832 18.5556C5.2782 18.72 5.43438 18.8482 5.6171 18.9239C5.79983 18.9996 6.00089 19.0194 6.19488 18.9808C6.38886 18.9422 6.56704 18.847 6.70689 18.7071C6.84674 18.5673 6.94199 18.3891 6.98057 18.1951C7.01916 18.0011 6.99935 17.8001 6.92366 17.6173C6.84798 17.4346 6.7198 17.2784 6.55536 17.1685C6.39091 17.0587 6.19757 17 5.99978 17C5.73457 17 5.48021 17.1054 5.29268 17.2929C5.10514 17.4804 4.99978 17.7348 4.99978 18Z" fill="#BDBDBD"/>
</g>
<defs>
<clipPath id="clip0">
<rect width="24" height="24" fill="white"/>
</clipPath>
</defs>
</svg>
