<svg width="20" height="24" viewBox="0 0 20 24" fill="none" xmlns="http://www.w3.org/2000/svg">
<path d="M10.3009 5.33328C8.09557 5.33328 6.3009 7.12795 6.3009 9.33328C6.3009 11.5386 8.09557 13.3333 10.3009 13.3333C12.5062 13.3333 14.3009 11.5386 14.3009 9.33328C14.3009 7.12795 12.5062 5.33328 10.3009 5.33328ZM10.3009 10.6666C9.5649 10.6666 8.96757 10.0693 8.96757 9.33328C8.96757 8.59728 9.5649 7.99995 10.3009 7.99995C11.0369 7.99995 11.6342 8.59728 11.6342 9.33328C11.6342 10.0693 11.0369 10.6666 10.3009 10.6666Z" fill="#828282"/>
<path d="M10.3009 0C5.15426 0 0.96759 4.18667 0.96759 9.33333C0.96759 14.1227 8.45559 22.6053 9.30892 23.5573C9.56226 23.8373 9.92226 24 10.3009 24C10.6796 24 11.0396 23.8373 11.2929 23.5573C12.1463 22.6053 19.6343 14.1227 19.6343 9.33333C19.6343 4.18667 15.4476 0 10.3009 0ZM10.3009 20.632C7.38892 17.1787 3.63426 11.8773 3.63426 9.33333C3.63426 5.65867 6.62626 2.66667 10.3009 2.66667C13.9756 2.66667 16.9676 5.65867 16.9676 9.33333C16.9676 11.8747 13.2129 17.1787 10.3009 20.632Z" fill="#828282"/>
</svg>
