<svg width="16" height="16" viewBox="0 0 16 16" fill="none" xmlns="http://www.w3.org/2000/svg">
<g clip-path="url(#clip0)">
<path d="M7.99979 16.0055L7.53313 15.6055C6.88979 15.0668 1.27246 10.2155 1.27246 6.66679C1.27246 4.88259 1.98123 3.17146 3.24285 1.90984C4.50447 0.648224 6.21559 -0.0605469 7.99979 -0.0605469C9.78399 -0.0605469 11.4951 0.648224 12.7567 1.90984C14.0184 3.17146 14.7271 4.88259 14.7271 6.66679C14.7271 10.2155 9.10979 15.0668 8.46913 15.6081L7.99979 16.0055ZM7.99979 1.39412C6.60188 1.39571 5.26168 1.95173 4.27321 2.9402C3.28474 3.92867 2.72872 5.26888 2.72713 6.66679C2.72713 8.89612 6.18313 12.4575 7.99979 14.0875C9.81646 12.4568 13.2725 8.89345 13.2725 6.66679C13.2709 5.26888 12.7149 3.92867 11.7264 2.9402C10.7379 1.95173 9.39771 1.39571 7.99979 1.39412Z" fill="black"/>
<path d="M7.99968 9.33333C7.47226 9.33333 6.95669 9.17694 6.51816 8.88392C6.07962 8.5909 5.73783 8.17443 5.536 7.68716C5.33416 7.19989 5.28135 6.66371 5.38425 6.14643C5.48714 5.62914 5.74112 5.15399 6.11406 4.78105C6.487 4.40811 6.96215 4.15413 7.47944 4.05124C7.99672 3.94835 8.5329 4.00116 9.02017 4.20299C9.50744 4.40482 9.92391 4.74662 10.2169 5.18515C10.5099 5.62368 10.6663 6.13925 10.6663 6.66667C10.6663 7.37391 10.3854 8.05219 9.88529 8.55229C9.3852 9.05238 8.70692 9.33333 7.99968 9.33333ZM7.99968 5.33333C7.73597 5.33333 7.47818 5.41153 7.25892 5.55804C7.03965 5.70455 6.86875 5.91279 6.76784 6.15642C6.66692 6.40006 6.64052 6.66815 6.69196 6.92679C6.74341 7.18543 6.8704 7.42301 7.05687 7.60948C7.24334 7.79595 7.48091 7.92294 7.73956 7.97438C7.9982 8.02583 8.26629 7.99942 8.50992 7.89851C8.75356 7.79759 8.96179 7.62669 9.1083 7.40743C9.25481 7.18816 9.33301 6.93038 9.33301 6.66667C9.33301 6.31305 9.19253 5.97391 8.94248 5.72386C8.69244 5.47381 8.3533 5.33333 7.99968 5.33333Z" fill="black"/>
</g>
<defs>
<clipPath id="clip0">
<rect width="16" height="16" fill="white"/>
</clipPath>
</defs>
</svg>
