<svg width="32" height="32" viewBox="0 0 32 32" fill="none" xmlns="http://www.w3.org/2000/svg">
<path d="M16 0L29.8564 24H2.14359L16 0Z" fill="#F4B63D"/>
<path d="M17.1484 16.7891H15.8438L15.7422 8.625H17.2578L17.1484 16.7891ZM15.6875 19.2734C15.6875 19.0391 15.7578 18.8438 15.8984 18.6875C16.0443 18.526 16.2578 18.4453 16.5391 18.4453C16.8203 18.4453 17.0339 18.526 17.1797 18.6875C17.3255 18.8438 17.3984 19.0391 17.3984 19.2734C17.3984 19.5078 17.3255 19.7031 17.1797 19.8594C17.0339 20.0104 16.8203 20.0859 16.5391 20.0859C16.2578 20.0859 16.0443 20.0104 15.8984 19.8594C15.7578 19.7031 15.6875 19.5078 15.6875 19.2734Z" fill="black"/>
</svg>
