<svg width="33" height="32" viewBox="0 0 33 32" fill="none" xmlns="http://www.w3.org/2000/svg">
<g clip-path="url(#clip0)">
<path d="M22.5 16.0002H21.1667V12.6382C21.1661 12.1155 20.9583 11.6144 20.5887 11.2448C20.2191 10.8752 19.718 10.6674 19.1953 10.6668H13.8047C13.282 10.6674 12.7809 10.8752 12.4113 11.2448C12.0417 11.6144 11.8339 12.1155 11.8333 12.6382V16.0002H10.5V12.6382C10.5011 11.762 10.8496 10.9221 11.4691 10.3026C12.0886 9.68306 12.9285 9.33455 13.8047 9.3335H19.1953C20.0715 9.33455 20.9114 9.68306 21.5309 10.3026C22.1504 10.9221 22.4989 11.762 22.5 12.6382V16.0002Z" fill="#68719F"/>
<path d="M16.5 8C15.7089 8 14.9355 7.76541 14.2777 7.32588C13.6199 6.88635 13.1072 6.26164 12.8045 5.53074C12.5017 4.79983 12.4225 3.99556 12.5769 3.21964C12.7312 2.44372 13.1122 1.73098 13.6716 1.17157C14.231 0.612165 14.9437 0.231202 15.7196 0.0768607C16.4956 -0.0774802 17.2998 0.00173314 18.0307 0.304484C18.7616 0.607234 19.3864 1.11992 19.8259 1.77772C20.2654 2.43552 20.5 3.20888 20.5 4C20.4989 5.06054 20.0772 6.07734 19.3273 6.82726C18.5773 7.57718 17.5605 7.99894 16.5 8ZM16.5 1.33334C15.9726 1.33334 15.457 1.48973 15.0185 1.78275C14.58 2.07577 14.2382 2.49224 14.0363 2.97951C13.8345 3.46678 13.7817 4.00296 13.8846 4.52024C13.9875 5.03753 14.2414 5.51268 14.6144 5.88562C14.9873 6.25856 15.4625 6.51254 15.9798 6.61543C16.497 6.71832 17.0332 6.66551 17.5205 6.46368C18.0078 6.26185 18.4242 5.92005 18.7173 5.48152C19.0103 5.04299 19.1667 4.52742 19.1667 4C19.1667 3.29276 18.8857 2.61448 18.3856 2.11438C17.8855 1.61429 17.2072 1.33334 16.5 1.33334Z" fill="#68719F"/>
</g>
<path d="M2.46777 25.1035V29H1.15527V19.0469H4.82617C5.91536 19.0469 6.76758 19.3249 7.38281 19.8809C8.0026 20.4368 8.3125 21.1729 8.3125 22.0889C8.3125 23.055 8.00944 23.8001 7.40332 24.3242C6.80176 24.8438 5.93815 25.1035 4.8125 25.1035H2.46777ZM2.46777 24.0303H4.82617C5.52799 24.0303 6.06576 23.8662 6.43945 23.5381C6.81315 23.2054 7 22.7269 7 22.1025C7 21.5101 6.81315 21.0361 6.43945 20.6807C6.06576 20.3252 5.55306 20.1406 4.90137 20.127H2.46777V24.0303ZM12.7627 29.1367C11.7601 29.1367 10.9443 28.8086 10.3154 28.1523C9.68652 27.4915 9.37207 26.6097 9.37207 25.5068V25.2744C9.37207 24.5407 9.51107 23.8867 9.78906 23.3125C10.0716 22.7337 10.4635 22.2826 10.9648 21.959C11.4707 21.6309 12.0176 21.4668 12.6055 21.4668C13.5671 21.4668 14.3145 21.7835 14.8477 22.417C15.3809 23.0505 15.6475 23.9574 15.6475 25.1377V25.6641H10.6367C10.6549 26.3932 10.8669 26.9834 11.2725 27.4346C11.6826 27.8812 12.2021 28.1045 12.8311 28.1045C13.2777 28.1045 13.6559 28.0133 13.9658 27.8311C14.2757 27.6488 14.5469 27.4072 14.7793 27.1064L15.5518 27.708C14.932 28.6605 14.0023 29.1367 12.7627 29.1367ZM12.6055 22.5059C12.0951 22.5059 11.6667 22.6927 11.3203 23.0664C10.974 23.4355 10.7598 23.9551 10.6777 24.625H14.3828V24.5293C14.3464 23.8867 14.1732 23.39 13.8633 23.0391C13.5534 22.6836 13.1341 22.5059 12.6055 22.5059ZM20.6924 22.7383C20.501 22.7064 20.2936 22.6904 20.0703 22.6904C19.2409 22.6904 18.6781 23.0436 18.3818 23.75V29H17.1172V21.6035H18.3477L18.3682 22.458C18.7829 21.7972 19.3708 21.4668 20.1318 21.4668C20.3779 21.4668 20.5648 21.4987 20.6924 21.5625V22.7383ZM22.2852 29V22.5811H21.1162V21.6035H22.2852V20.9746C22.2852 20.1497 22.5199 19.5072 22.9893 19.0469C23.4632 18.5866 24.1309 18.3564 24.9922 18.3564C25.5026 18.3564 26.1475 18.4954 26.9268 18.7734L26.7148 19.8398C26.1452 19.612 25.6029 19.498 25.0879 19.498C24.5456 19.498 24.1536 19.6211 23.9121 19.8672C23.6751 20.1087 23.5566 20.4733 23.5566 20.9609V21.6035H25.0674V22.5811H23.5566V29H22.2852ZM27.5557 29H26.2842V21.6035H27.5557V29ZM30.9873 29H29.7227V18.5H30.9873V29Z" fill="#68719F"/>
<defs>
<clipPath id="clip0">
<rect width="16" height="16" fill="white" transform="translate(8.5)"/>
</clipPath>
</defs>
</svg>
