<svg width="38" height="38" viewBox="0 0 38 38" fill="none" xmlns="http://www.w3.org/2000/svg">
<g clip-path="url(#clip0)">
<path d="M26.936 4.75834C32.1547 4.78375 36.379 9.00801 36.4044 14.2267C36.4044 23.7879 18.9993 33.2562 18.9993 33.2562C18.9993 33.2562 1.59424 23.6486 1.59424 14.2267C1.59424 8.99753 5.83334 4.75834 11.0626 4.75834C14.2636 4.73338 17.2562 6.3434 18.9993 9.02835C20.7543 6.35645 23.7392 4.75061 26.936 4.75834Z" fill="#EB5757"/>
<path d="M18.9998 34.1846C18.8351 34.1824 18.6743 34.1342 18.5357 34.0454C17.8395 33.674 0.666504 24.0664 0.666504 14.2268C0.666504 8.48491 5.32118 3.83014 11.0632 3.83014C14.126 3.79407 17.0419 5.14112 18.9999 7.49676C22.7088 3.11339 29.2688 2.56668 33.6522 6.27559C35.9906 8.25428 37.3375 11.1635 37.3333 14.2267C37.3333 24.2056 20.1603 33.6739 19.4641 34.0453C19.3253 34.1341 19.1645 34.1824 18.9998 34.1846ZM11.0632 5.68668C6.34665 5.68668 2.52305 9.51019 2.52305 14.2268C2.52305 22.2099 16.3078 30.6107 18.9998 32.1888C21.6918 30.6572 35.4765 22.3027 35.4765 14.2268C35.4843 9.51028 31.6671 5.68046 26.9506 5.67264C24.0632 5.66793 21.3689 7.1224 19.7889 9.53897C19.4729 9.97473 18.8633 10.0718 18.4276 9.75574C18.3443 9.69533 18.2711 9.62222 18.2108 9.53897C16.6545 7.1056 13.9515 5.64875 11.0632 5.68668Z" fill="#EB5757"/>
</g>
<defs>
<clipPath id="clip0">
<rect width="36.6667" height="36.6667" fill="white" transform="translate(0.666504 0.666748)"/>
</clipPath>
</defs>
</svg>
