<svg width="36" height="32" viewBox="0 0 36 32" fill="none" xmlns="http://www.w3.org/2000/svg">
<g clip-path="url(#clip0)">
<path d="M17.9998 16.0052L17.5331 15.6052C16.8898 15.0665 11.2725 10.2152 11.2725 6.66654C11.2725 4.88234 11.9812 3.17122 13.2429 1.9096C14.5045 0.64798 16.2156 -0.060791 17.9998 -0.060791C19.784 -0.060791 21.4951 0.64798 22.7567 1.9096C24.0184 3.17122 24.7271 4.88234 24.7271 6.66654C24.7271 10.2152 19.1098 15.0665 18.4691 15.6079L17.9998 16.0052ZM17.9998 1.39388C16.6019 1.39546 15.2617 1.95149 14.2732 2.93996C13.2847 3.92843 12.7287 5.26863 12.7271 6.66654C12.7271 8.89588 16.1831 12.4572 17.9998 14.0872C19.8165 12.4565 23.2725 8.89321 23.2725 6.66654C23.2709 5.26863 22.7149 3.92843 21.7264 2.93996C20.7379 1.95149 19.3977 1.39546 17.9998 1.39388Z" fill="#68719F"/>
<path d="M17.9997 9.33333C17.4723 9.33333 16.9567 9.17694 16.5182 8.88392C16.0796 8.5909 15.7378 8.17443 15.536 7.68716C15.3342 7.19989 15.2814 6.66371 15.3842 6.14643C15.4871 5.62914 15.7411 5.15399 16.1141 4.78105C16.487 4.40811 16.9622 4.15413 17.4794 4.05124C17.9967 3.94835 18.5329 4.00116 19.0202 4.20299C19.5074 4.40482 19.9239 4.74662 20.2169 5.18515C20.5099 5.62368 20.6663 6.13925 20.6663 6.66667C20.6663 7.37391 20.3854 8.05219 19.8853 8.55229C19.3852 9.05238 18.7069 9.33333 17.9997 9.33333ZM17.9997 5.33333C17.736 5.33333 17.4782 5.41153 17.2589 5.55804C17.0397 5.70455 16.8688 5.91279 16.7678 6.15642C16.6669 6.40006 16.6405 6.66815 16.692 6.92679C16.7434 7.18543 16.8704 7.42301 17.0569 7.60948C17.2433 7.79595 17.4809 7.92294 17.7396 7.97438C17.9982 8.02583 18.2663 7.99942 18.5099 7.89851C18.7536 7.79759 18.9618 7.62669 19.1083 7.40743C19.2548 7.18816 19.333 6.93038 19.333 6.66667C19.333 6.31305 19.1925 5.97391 18.9425 5.72386C18.6924 5.47381 18.3533 5.33333 17.9997 5.33333Z" fill="#68719F"/>
</g>
<path d="M4.80566 24.9736H2.46777V29H1.14844V19.0469H4.44336C5.56445 19.0469 6.42578 19.3021 7.02734 19.8125C7.63346 20.3229 7.93652 21.0658 7.93652 22.041C7.93652 22.6608 7.7679 23.2008 7.43066 23.6611C7.09798 24.1214 6.63314 24.4655 6.03613 24.6934L8.37402 28.918V29H6.96582L4.80566 24.9736ZM2.46777 23.9004H4.48438C5.13607 23.9004 5.65332 23.7318 6.03613 23.3945C6.4235 23.0573 6.61719 22.6061 6.61719 22.041C6.61719 21.4258 6.43262 20.9541 6.06348 20.626C5.69889 20.2979 5.17025 20.1315 4.47754 20.127H2.46777V23.9004ZM14.1504 28.2686C13.6582 28.8473 12.9359 29.1367 11.9834 29.1367C11.195 29.1367 10.5934 28.9089 10.1787 28.4531C9.76855 27.9928 9.5612 27.3138 9.55664 26.416V21.6035H10.8213V26.3818C10.8213 27.5029 11.277 28.0635 12.1885 28.0635C13.1546 28.0635 13.7972 27.7035 14.1162 26.9834V21.6035H15.3809V29H14.1777L14.1504 28.2686ZM19.0244 19.8125V21.6035H20.4053V22.5811H19.0244V27.168C19.0244 27.4642 19.0859 27.6875 19.209 27.8379C19.332 27.9837 19.5417 28.0566 19.8379 28.0566C19.9837 28.0566 20.1842 28.0293 20.4395 27.9746V29C20.1068 29.0911 19.7832 29.1367 19.4688 29.1367C18.9036 29.1367 18.4775 28.9658 18.1904 28.624C17.9033 28.2822 17.7598 27.7969 17.7598 27.168V22.5811H16.4131V21.6035H17.7598V19.8125H19.0244ZM26.4551 29C26.3822 28.8542 26.3229 28.5944 26.2773 28.2207C25.6895 28.8314 24.9876 29.1367 24.1719 29.1367C23.4427 29.1367 22.8434 28.9316 22.374 28.5215C21.9092 28.1068 21.6768 27.5827 21.6768 26.9492C21.6768 26.179 21.9684 25.582 22.5518 25.1582C23.1396 24.7298 23.9645 24.5156 25.0264 24.5156H26.2568V23.9346C26.2568 23.4925 26.1247 23.1416 25.8604 22.8818C25.596 22.6175 25.2064 22.4854 24.6914 22.4854C24.2402 22.4854 23.862 22.5993 23.5566 22.8271C23.2513 23.055 23.0986 23.3307 23.0986 23.6543H21.8271C21.8271 23.2852 21.957 22.9297 22.2168 22.5879C22.4811 22.2415 22.8366 21.9681 23.2832 21.7676C23.7344 21.5671 24.2288 21.4668 24.7666 21.4668C25.6188 21.4668 26.2865 21.681 26.7695 22.1094C27.2526 22.5332 27.5033 23.1188 27.5215 23.8662V27.2705C27.5215 27.9495 27.6081 28.4896 27.7812 28.8906V29H26.4551ZM24.3564 28.0361C24.7529 28.0361 25.1289 27.9336 25.4844 27.7285C25.8398 27.5234 26.0973 27.2568 26.2568 26.9287V25.4111H25.2656C23.7161 25.4111 22.9414 25.8646 22.9414 26.7715C22.9414 27.168 23.0736 27.4779 23.3379 27.7012C23.6022 27.9245 23.9417 28.0361 24.3564 28.0361ZM33.8105 27.0381C33.8105 26.6963 33.6807 26.432 33.4209 26.2451C33.1657 26.0537 32.7168 25.8896 32.0742 25.7529C31.4362 25.6162 30.9281 25.4521 30.5498 25.2607C30.1761 25.0693 29.8981 24.8415 29.7158 24.5771C29.5381 24.3128 29.4492 23.9984 29.4492 23.6338C29.4492 23.0277 29.7044 22.515 30.2148 22.0957C30.7298 21.6764 31.3861 21.4668 32.1836 21.4668C33.0221 21.4668 33.7012 21.6833 34.2207 22.1162C34.7448 22.5492 35.0068 23.1029 35.0068 23.7773H33.7354C33.7354 23.431 33.5872 23.1325 33.291 22.8818C32.9993 22.6312 32.6302 22.5059 32.1836 22.5059C31.7233 22.5059 31.3633 22.6061 31.1035 22.8066C30.8438 23.0072 30.7139 23.2692 30.7139 23.5928C30.7139 23.8981 30.8346 24.1283 31.0762 24.2832C31.3177 24.4382 31.7529 24.5863 32.3818 24.7275C33.0153 24.8688 33.528 25.0374 33.9199 25.2334C34.3118 25.4294 34.6012 25.6663 34.7881 25.9443C34.9795 26.2178 35.0752 26.5527 35.0752 26.9492C35.0752 27.61 34.8109 28.141 34.2822 28.542C33.7536 28.9385 33.0677 29.1367 32.2246 29.1367C31.6322 29.1367 31.1081 29.0319 30.6523 28.8223C30.1966 28.6126 29.8389 28.321 29.5791 27.9473C29.3239 27.569 29.1963 27.1611 29.1963 26.7236H30.4609C30.4837 27.1475 30.6523 27.4847 30.9668 27.7354C31.2858 27.9814 31.7051 28.1045 32.2246 28.1045C32.7031 28.1045 33.0859 28.0088 33.373 27.8174C33.6647 27.6214 33.8105 27.3617 33.8105 27.0381Z" fill="#68719F"/>
<defs>
<clipPath id="clip0">
<rect width="16" height="16" fill="white" transform="translate(10)"/>
</clipPath>
</defs>
</svg>
