<svg width="21" height="24" viewBox="0 0 21 24" fill="none" xmlns="http://www.w3.org/2000/svg">
<path d="M14.1343 2H5.13429C4.85792 2 4.63428 2.22364 4.63428 2.50001V8.50928C4.63428 8.78566 4.85792 9.0093 5.13429 9.0093H14.1343C14.4106 9.0093 14.6343 8.78566 14.6343 8.50928V2.49997C14.6342 2.22364 14.4106 2 14.1343 2ZM13.6343 8.00927H5.63426V2.99998H13.6343V8.00927Z" fill="black"/>
<path d="M20.1343 2.99999C19.8579 2.99999 19.6342 3.22363 19.6342 3.50001V4.00002H18.6343V3.50001C18.6343 3.22363 18.4106 2.99999 18.1342 2.99999C17.8579 2.99999 17.6342 3.22363 17.6342 3.50001V5.50002C17.6342 6.15102 18.0535 6.70082 18.6342 6.90791V17.5C18.6342 17.7759 18.4096 18 18.1342 18C17.8588 18 17.6342 17.7759 17.6342 17.5V16.5C17.6342 15.849 17.2149 15.2992 16.6342 15.0921V2.00001C16.6342 0.896951 15.7368 0 14.6342 0H4.63427C3.53173 0 2.63426 0.896951 2.63426 2.00001V20C1.53171 20 0.634247 20.8969 0.634247 22V23.5C0.634247 23.7764 0.857887 24 1.13426 24H18.1342C18.4106 24 18.6343 23.7764 18.6343 23.5V22C18.6343 20.897 17.7368 20 16.6342 20V17.5C16.6342 18.3272 17.3071 19 18.1342 19C18.9614 19 19.6342 18.3272 19.6342 17.5V6.90786C20.215 6.70077 20.6342 6.15097 20.6342 5.49997V3.50001C20.6342 3.22363 20.4106 2.99999 20.1343 2.99999ZM3.63429 2.00001C3.63429 1.44876 4.08255 1.00003 4.63427 1.00003H14.6342C15.186 1.00003 15.6342 1.44876 15.6342 2.00001V20H3.63424V2.00001H3.63429ZM17.6342 21.9999V22.9999H1.63428V21.9999C1.63428 21.4487 2.08254 21 2.63426 21H16.6342C17.186 21 17.6342 21.4487 17.6342 21.9999ZM19.6342 5.49997C19.6342 5.77583 19.4096 5.99999 19.1342 5.99999C18.8588 5.99999 18.6342 5.77588 18.6342 5.49997V4.99996H19.6342V5.49997Z" fill="black"/>
<path d="M12.1342 13H10.6342V10.5C10.6342 10.2753 10.4839 10.0781 10.268 10.0181C10.0473 9.95847 9.82073 10.0503 9.70551 10.2427L6.70552 15.2427C6.61275 15.3975 6.61078 15.5898 6.69867 15.7466C6.78755 15.9033 6.95452 16 7.13423 16H8.63423V18.5C8.63423 18.7246 8.78461 18.9218 9.00046 18.9819C9.04537 18.9941 9.09032 18.9999 9.13425 18.9999C9.30712 18.9999 9.47118 18.9106 9.56296 18.7573L12.563 13.7573C12.6557 13.6025 12.6577 13.4101 12.5698 13.2534C12.4809 13.0967 12.3139 13 12.1342 13ZM9.63426 16.6948V15.4999C9.63426 15.2236 9.41062 14.9999 9.13425 14.9999H8.01708L9.63426 12.3051V13.5C9.63426 13.7763 9.8579 14 10.1343 14H11.2514L9.63426 16.6948Z" fill="black"/>
</svg>
