<svg width="25" height="24" viewBox="0 0 25 24" fill="none" xmlns="http://www.w3.org/2000/svg">
<path d="M22.7305 15.2349C21.9351 14.536 20.9705 13.9321 19.8632 13.4401C19.3899 13.2299 18.836 13.4431 18.6258 13.9162C18.4156 14.3893 18.6287 14.9432 19.1019 15.1536C20.0355 15.5685 20.8401 16.0697 21.4929 16.6434C22.2976 17.3505 22.7592 18.3745 22.7592 19.4531V21.1875C22.7592 21.7044 22.3386 22.125 21.8217 22.125H3.44672C2.92981 22.125 2.50922 21.7044 2.50922 21.1875V19.4531C2.50922 18.3745 2.97083 17.3505 3.77557 16.6434C4.72278 15.811 7.48254 13.875 12.6342 13.875C16.4595 13.875 19.5717 10.7628 19.5717 6.9375C19.5717 3.11224 16.4595 0 12.6342 0C8.80896 0 5.69672 3.11224 5.69672 6.9375C5.69672 9.17377 6.76056 11.166 8.40851 12.4354C5.39313 13.0983 3.5174 14.3741 2.53796 15.2349C1.32819 16.2979 0.634216 17.8352 0.634216 19.4531V21.1875C0.634216 22.7384 1.89581 24 3.44672 24H21.8217C23.3726 24 24.6342 22.7384 24.6342 21.1875V19.4531C24.6342 17.8352 23.9402 16.2979 22.7305 15.2349ZM7.57172 6.9375C7.57172 4.14606 9.84277 1.875 12.6342 1.875C15.4257 1.875 17.6967 4.14606 17.6967 6.9375C17.6967 9.72894 15.4257 12 12.6342 12C9.84277 12 7.57172 9.72894 7.57172 6.9375Z" fill="#828282"/>
</svg>
